<svg width="48" height="47" viewBox="0 0 48 47" fill="none" xmlns="http://www.w3.org/2000/svg">
<path d="M22.1733 1.56687C22.878 -0.0141065 25.122 -0.0141082 25.8267 1.56687L31.2656 13.7685C31.5563 14.4205 32.1725 14.8682 32.8824 14.9432L46.1675 16.3453C47.8889 16.527 48.5824 18.6612 47.2965 19.82L37.3728 28.7632C36.8425 29.2411 36.6071 29.9655 36.7552 30.6639L39.527 43.732C39.8862 45.4253 38.0707 46.7443 36.5713 45.8795L24.9992 39.2051C24.3808 38.8484 23.6192 38.8484 23.0008 39.2051L11.4287 45.8795C9.92928 46.7443 8.11382 45.4253 8.47297 43.732L11.2448 30.6639C11.3929 29.9655 11.1575 29.2411 10.6272 28.7632L0.703466 19.82C-0.582361 18.6612 0.111083 16.527 1.83245 16.3453L15.1176 14.9432C15.8275 14.8682 16.4437 14.4205 16.7344 13.7685L22.1733 1.56687Z" fill="#FF886D"/>
</svg>
